HIERARCHY
ROOT root
{
	OFFSET 0.000000 0.000000 0.000000
	CHANNELS 6 Xposition Yposition Zposition Zrotation Yrotation Xrotation
	JOINT lhip
	{
		OFFSET 0.058581 -0.082280 -0.017664
		CHANNELS 3 Zrotation Yrotation Xrotation
		JOINT lknee
		{
			OFFSET 0.043451 -0.386469 0.008037
			CHANNELS 3 Zrotation Yrotation Xrotation
			JOINT lankle
			{
				OFFSET -0.014790 -0.426874 -0.037428
				CHANNELS 3 Zrotation Yrotation Xrotation
				JOINT ltoe
				{
					OFFSET 0.041054 -0.060286 0.122042
					CHANNELS 3 Zrotation Yrotation Xrotation
					End Site
					{
						OFFSET 0.000000 0.000000 0.000000
					}
				}
			}
		}
	}
	JOINT rhip
	{
		OFFSET -0.060310 -0.090513 -0.013543
		CHANNELS 3 Zrotation Yrotation Xrotation
		JOINT rknee
		{
			OFFSET -0.043257 -0.383688 -0.004843
			CHANNELS 3 Zrotation Yrotation Xrotation
			JOINT rankle
			{
				OFFSET 0.019056 -0.420046 -0.034562
				CHANNELS 3 Zrotation Yrotation Xrotation
				JOINT rtoe
				{
					OFFSET -0.034840 -0.062106 0.130323
					CHANNELS 3 Zrotation Yrotation Xrotation
					End Site
					{
						OFFSET 0.000000 0.000000 0.000000
					}
				}
			}
		}
	}
	JOINT lowerback
	{
		OFFSET 0.004439 0.124404 -0.038385
		CHANNELS 3 Zrotation Yrotation Xrotation
		JOINT upperback
		{
			OFFSET 0.004488 0.137956 0.026820
			CHANNELS 3 Zrotation Yrotation Xrotation
			JOINT chest
			{
				OFFSET -0.002265 0.056032 0.002855
				CHANNELS 3 Zrotation Yrotation Xrotation
				JOINT lowerneck
				{
					OFFSET -0.013390 0.211636 -0.033468
					CHANNELS 3 Zrotation Yrotation Xrotation
					JOINT upperneck
					{
						OFFSET 0.010113 0.088937 0.050410
						CHANNELS 3 Zrotation Yrotation Xrotation
						End Site
						{
							OFFSET 0.000000 0.000000 0.000000
						}
					}
				}
				JOINT lclavicle
				{
					OFFSET 0.071702 0.114000 -0.018898
					CHANNELS 3 Zrotation Yrotation Xrotation
					JOINT lshoulder
					{
						OFFSET 0.122921 0.045205 -0.019046
						CHANNELS 3 Zrotation Yrotation Xrotation
						JOINT lelbow
						{
							OFFSET 0.255332 -0.015649 -0.022946
							CHANNELS 3 Zrotation Yrotation Xrotation
							JOINT lwrist
							{
								OFFSET 0.265709 0.012698 -0.007375
								CHANNELS 3 Zrotation Yrotation Xrotation
								End Site
								{
									OFFSET 0.000000 0.000000 0.000000
								}
							}
						}
					}
				}
				JOINT rclavicle
				{
					OFFSET -0.082954 0.112472 -0.023707
					CHANNELS 3 Zrotation Yrotation Xrotation
					JOINT rshoulder
					{
						OFFSET -0.113228 0.046853 -0.008472
						CHANNELS 3 Zrotation Yrotation Xrotation
						JOINT relbow
						{
							OFFSET -0.260127 -0.014369 -0.031269
							CHANNELS 3 Zrotation Yrotation Xrotation
							JOINT rwrist
							{
								OFFSET -0.269108 0.006794 -0.006027
								CHANNELS 3 Zrotation Yrotation Xrotation
								End Site
								{
									OFFSET 0.000000 0.000000 0.000000
								}
							}
						}
					}
				}
			}
		}
	}
}
MOTION
Frames: 8
Frame Time: 0.033333
-0.146225 0.284246 0.985714 90.570663 -0.262752 87.808940 -1.362988 -1.333830 -3.210683 -4.701094 -7.232115 12.652906 4.186647 5.887085 -10.776153 0.000000 -0.000000 0.000000 0.190585 -5.453760 -4.421445 -0.464832 -3.931028 17.325702 -0.239801 -9.818816 -17.404989 0.000000 -0.000000 0.000000 0.153616 2.373706 4.880501 0.675681 -3.070041 -1.756160 0.648304 -1.772432 1.438755 -1.308496 7.409209 -4.770270 -0.061193 3.832159 0.913212 -19.126072 3.906261 -1.820197 -65.995136 -10.833313 8.520362 7.330422 -14.950447 9.784710 -10.031563 3.489675 -9.324297 17.221358 -0.826991 -2.423293 64.243320 6.570021 12.336705 -6.940260 16.716408 -3.631126 12.010215 2.320709 -17.476568 
-0.146204 0.283353 0.985682 90.545077 -0.272686 87.737558 -1.321549 -1.277034 -3.091170 -4.745481 -7.399461 12.564910 4.101028 6.039636 -10.721160 0.000000 -0.000000 0.000000 0.219281 -5.486954 -4.376487 -0.415838 -3.771410 17.371435 -0.168703 -9.951889 -17.443482 0.000000 -0.000000 0.000000 0.252728 2.215370 4.906519 0.544094 -3.010011 -1.635549 0.590273 -1.695788 1.594253 -1.125216 7.343553 -4.746395 -0.207434 3.771945 1.126968 -19.135843 3.907067 -1.769241 -65.943485 -10.907652 8.566988 7.287514 -14.906810 9.883625 -10.111160 3.250153 -9.347809 17.164907 -0.707846 -2.355596 64.351879 6.700997 12.411484 -7.018449 16.495026 -4.007934 11.905943 2.190639 -17.527876 
-0.146359 0.282548 0.985698 90.526831 -0.277837 87.795277 -1.271982 -1.328264 -3.163889 -4.777636 -7.430189 12.571542 4.082908 6.124326 -10.762192 0.000000 -0.000000 0.000000 0.299394 -5.488720 -4.487539 -0.457474 -3.699225 17.427294 -0.124400 -9.971560 -17.501861 0.000000 -0.000000 0.000000 0.265153 2.267897 5.084075 0.548349 -2.938139 -1.712614 0.620918 -1.553681 1.570286 -1.234752 7.159707 -4.658575 -0.083752 3.734006 1.201110 -19.156198 3.778050 -1.710407 -65.962753 -10.916576 8.594201 7.127234 -14.828066 10.103671 -10.211264 3.345333 -9.228861 17.032993 -0.881321 -2.573863 64.401128 6.343433 12.242793 -7.004884 16.488239 -3.852936 12.036483 2.226878 -17.439870 
-0.146419 0.281692 0.985778 90.640370 -0.316704 87.788034 -1.293068 -1.277055 -3.190261 -4.683928 -7.460410 12.619289 4.021910 5.977014 -10.811069 0.000000 -0.000000 0.000000 0.320099 -5.561701 -4.472530 -0.488523 -3.804930 17.439297 -0.135175 -9.956016 -17.510674 0.000000 -0.000000 0.000000 0.266621 2.278509 5.209565 0.519565 -2.944086 -1.653431 0.598198 -1.635901 1.638009 -1.184816 7.336223 -4.727270 -0.072908 3.715106 1.429995 -19.090917 3.868331 -1.778013 -66.057852 -10.877075 8.720533 6.968510 -14.945244 10.529514 -10.269315 3.237952 -9.121217 17.089462 -1.022296 -2.499265 64.331206 6.457233 12.290555 -6.881971 16.260562 -3.758262 12.112680 2.410373 -17.375581 
-0.146689 0.281198 0.985766 90.724418 -0.345565 87.884762 -1.298106 -1.320548 -3.337786 -4.659204 -7.457419 12.641161 4.060379 5.948934 -10.717755 0.000000 -0.000000 0.000000 0.343430 -5.515633 -4.605241 -0.506368 -3.839361 17.449275 -0.161244 -10.017083 -17.507663 0.000000 -0.000000 0.000000 0.251900 2.254858 5.261373 0.537699 -2.924461 -1.739575 0.598567 -1.622956 1.630150 -1.199111 7.190227 -4.503082 -0.059497 3.691972 1.510880 -19.143776 3.822843 -1.713151 -66.044283 -10.932548 8.739886 6.941700 -14.942358 10.548944 -10.338414 3.279516 -9.108115 16.996956 -1.003841 -2.459891 64.416873 6.292202 12.240831 -6.943353 16.160420 -3.761138 12.232313 2.353031 -17.386816 
-0.146776 0.280406 0.985783 90.835394 -0.348685 87.951427 -1.235275 -1.564163 -3.417190 -4.679751 -7.358547 12.650609 4.062744 5.972900 -10.780288 0.000000 -0.000000 0.000000 0.410136 -5.586193 -4.661257 -0.509529 -3.837289 17.418755 -0.155799 -10.073358 -17.501500 0.000000 -0.000000 0.000000 0.270601 2.337379 5.155647 0.562805 -2.990775 -1.628972 0.588387 -1.725648 1.787546 -1.174964 7.267820 -4.314901 -0.178045 3.739241 1.534037 -19.109246 3.834193 -1.724785 -66.088902 -10.995045 8.883653 6.828568 -15.034135 10.908519 -10.254993 3.460697 -8.875101 17.067932 -1.085772 -2.407585 64.374036 6.466915 12.213638 -6.946423 15.964216 -3.737288 12.239374 2.255810 -17.237866 
-0.146867 0.279600 0.985724 90.936810 -0.336779 87.926855 -1.132880 -1.343072 -3.426816 -4.744523 -7.573132 12.655744 3.961275 5.859561 -10.676183 0.000000 -0.000000 0.000000 0.449790 -5.632447 -4.625647 -0.457250 -3.898905 17.401420 -0.305189 -10.077329 -17.559510 0.000000 -0.000000 0.000000 0.254982 2.214805 5.341012 0.599617 -3.066704 -1.501008 0.656800 -1.677767 1.600156 -1.230601 7.357713 -3.899045 -0.173109 3.914266 1.604255 -19.054732 3.530860 -1.565754 -66.122966 -10.838419 8.912130 6.807086 -15.256683 11.000090 -10.538200 3.497856 -8.946117 17.013918 -0.929275 -2.277416 64.310750 6.336091 12.090160 -6.829826 16.068352 -3.626737 12.385854 2.099456 -17.260301 
-0.146875 0.278788 0.985936 90.890216 -0.461237 87.938551 -1.182949 -1.321438 -3.353328 -4.758974 -7.509417 12.546523 3.965220 5.827407 -10.676092 0.000000 -0.000000 0.000000 0.383831 -5.626796 -4.655905 -0.487749 -3.907742 17.435368 -0.263817 -10.082122 -17.564669 0.000000 -0.000000 0.000000 0.241343 2.230925 5.505441 0.512725 -2.994692 -1.623183 0.569638 -1.740594 1.743249 -1.181330 7.500064 -3.738823 -0.221800 3.994934 1.834262 -19.033033 3.793137 -1.708433 -65.981276 -10.904371 8.963014 6.518546 -15.590981 11.381340 -10.589808 3.589759 -8.804362 17.195601 -1.082620 -2.361384 64.327446 6.437664 12.186203 -6.745277 15.866542 -3.508596 12.416458 2.029953 -16.912222 
